<?xml version="1.0" encoding="UTF-8" standalone="no"?>
<svg
   width="43.432281"
   zoomAndPan="magnify"
   viewBox="0 0 32.574211 32.574234"
   height="43.432312"
   preserveAspectRatio="xMidYMid"
   version="1.0"
   id="svg1292"
   xmlns="http://www.w3.org/2000/svg"
   xmlns:svg="http://www.w3.org/2000/svg">
  <defs
     id="defs508">
    <clipPath
       id="5a163a21e2">
      <path
         d="M 0.296875,0.613281 H 32.871094 V 33.1875 H 0.296875 Z m 0,0"
         clip-rule="nonzero"
         id="path474" />
    </clipPath>
    <clipPath
       id="9e7c401e3a">
      <path
         d="m 16.585938,0.613281 c -8.996094,0 -16.289063,7.292969 -16.289063,16.289063 0,8.992187 7.292969,16.285156 16.289063,16.285156 8.992187,0 16.285156,-7.292969 16.285156,-16.285156 0,-8.996094 -7.292969,-16.289063 -16.285156,-16.289063 z m 0,0"
         clip-rule="nonzero"
         id="path475" />
    </clipPath>
    <clipPath
       id="92b733bfd4">
      <path
         d="M 0.296875,0.613281 H 32.871094 V 33.1875 H 0.296875 Z m 0,0"
         clip-rule="nonzero"
         id="path476" />
    </clipPath>
    <clipPath
       id="868c3b41cf">
      <path
         d="m 16.585938,0.613281 c -8.996094,0 -16.289063,7.292969 -16.289063,16.289063 0,8.992187 7.292969,16.285156 16.289063,16.285156 8.992187,0 16.285156,-7.292969 16.285156,-16.285156 0,-8.996094 -7.292969,-16.289063 -16.285156,-16.289063 z m 0,0"
         clip-rule="nonzero"
         id="path477" />
    </clipPath>
    <clipPath
       id="dfa670980a">
      <rect
         x="0"
         width="33"
         y="0"
         height="34"
         id="rect477" />
    </clipPath>
    <clipPath
       id="f7f38e9bc4">
      <path
         d="M 6.621094,14 H 19 V 26.800781 H 6.621094 Z m 0,0"
         clip-rule="nonzero"
         id="path478" />
    </clipPath>
    <clipPath
       id="9fc4cbb976">
      <path
         d="M 13,6.9375 H 26.484375 V 20 H 13 Z m 0,0"
         clip-rule="nonzero"
         id="path479" />
    </clipPath>
    <clipPath
       id="fc8be8e79c">
      <rect
         x="0"
         width="34"
         y="0"
         height="34"
         id="rect479" />
    </clipPath>
  </defs>
  <rect
     x="-247.29688"
     width="1728"
     fill="#ffffff"
     y="-602.61328"
     height="972"
     fill-opacity="1"
     id="rect509" />
  <rect
     x="-247.29688"
     width="1728"
     fill="#ffffff"
     y="-602.61328"
     height="972"
     fill-opacity="1"
     id="rect510" />
  <g
     transform="translate(-0.29688256,-0.61327913)"
     id="g1052">
    <g
       clip-path="url(#fc8be8e79c)"
       id="g1051">
      <g
         clip-path="url(#5a163a21e2)"
         id="g1048">
        <g
           clip-path="url(#9e7c401e3a)"
           id="g1047">
          <g
             id="g1046">
            <g
               clip-path="url(#dfa670980a)"
               id="g1045">
              <g
                 clip-path="url(#92b733bfd4)"
                 id="g1044">
                <g
                   clip-path="url(#868c3b41cf)"
                   id="g1043">
                  <path
                     fill="#ff4b1e"
                     d="M 0.296875,0.613281 H 32.871094 V 33.1875 H 0.296875 Z m 0,0"
                     fill-opacity="1"
                     fill-rule="nonzero"
                     id="path1042" />
                </g>
              </g>
            </g>
          </g>
        </g>
      </g>
      <g
         clip-path="url(#f7f38e9bc4)"
         id="g1049">
        <path
           fill="#ffffff"
           d="m 6.910156,25.160156 c -0.386718,0.390625 -0.386718,1.019532 0,1.410156 0.390625,0.386719 1.019532,0.386719 1.410156,0 l 1.6875,-1.6875 c 0.386719,-0.390624 1.019532,-0.390624 1.40625,0 L 11.75,25.21875 c 0.863281,0.859375 2.253906,0.859375 3.117188,0 l 0.628906,-0.628906 c 0.390625,-0.390625 0.996094,-0.414063 1.386718,-0.02344 0.390626,0.390625 1.019532,0.390625 1.410157,0 0.390625,-0.390625 0.390625,-1.019531 0,-1.410156 L 10.320312,15.1875 c -0.191406,-0.195312 -0.449218,-0.292969 -0.703124,-0.292969 -0.253907,0 -0.507813,0.09766 -0.703126,0.292969 -0.390624,0.390625 -0.390624,1.019531 0,1.410156 0.390626,0.386719 0.367188,0.996094 -0.023437,1.386719 l -0.628906,0.628906 c -0.859375,0.859375 -0.859375,2.253907 0,3.113281 l 0.335937,0.339844 c 0.390625,0.386719 0.390625,1.019532 0,1.40625 z m 0,0"
           fill-opacity="1"
           fill-rule="nonzero"
           id="path1048" />
      </g>
      <g
         clip-path="url(#9fc4cbb976)"
         id="g1050">
        <path
           fill="#ffffff"
           d="m 25.5625,10.734375 c -0.390625,-0.386719 -0.390625,-1.019531 0,-1.40625 l 0.691406,-0.691406 c 0.386719,-0.390625 0.386719,-1.019531 0,-1.410157 -0.390625,-0.386718 -1.019531,-0.386718 -1.410156,0 l -0.691406,0.691407 c -0.390625,0.390625 -1.019532,0.390625 -1.40625,0 L 22.40625,7.582031 c -0.859375,-0.859375 -2.253906,-0.859375 -3.113281,0 l -1.617188,1.617188 c -0.378906,0.378906 -1.003906,0.402343 -1.386719,0.023437 -0.390624,-0.390625 -1.019531,-0.390625 -1.40625,0 -0.390624,0.386719 -0.390624,1.019532 0,1.40625 l 0.582032,0.585938 c 0.390625,0.386718 0.390625,1.019531 0,1.40625 l -1.578125,1.582031 c -0.390625,0.386719 -0.390625,1.015625 0,1.40625 0.191406,0.195313 0.449219,0.292969 0.703125,0.292969 0.253906,0 0.507812,-0.09766 0.703125,-0.292969 L 16.875,14.03125 c 0.386719,-0.390625 1.019531,-0.390625 1.40625,0 l 1.167969,1.167969 c 0.390625,0.386719 0.390625,1.019531 0,1.40625 L 17.871094,18.1875 c -0.390625,0.386719 -0.390625,1.019531 0,1.40625 0.191406,0.195312 0.449218,0.292969 0.703125,0.292969 0.253906,0 0.511719,-0.09766 0.703125,-0.292969 l 1.582031,-1.578125 c 0.386719,-0.390625 1.019531,-0.390625 1.40625,0 l 0.585937,0.582031 c 0.195313,0.195313 0.449219,0.292969 0.703126,0.292969 0.253906,0 0.511718,-0.09766 0.703124,-0.292969 0.390626,-0.386718 0.390626,-1.019531 0,-1.40625 -0.378906,-0.382812 -0.355468,-1.007812 0.02344,-1.386718 L 25.898438,14.1875 c 0.859374,-0.859375 0.859374,-2.253906 0,-3.117188 z m 0,0"
           fill-opacity="1"
           fill-rule="nonzero"
           id="path1049" />
      </g>
    </g>
  </g>
</svg>
